#!OML:ASF X:\für Bonn\!DataBase\2005_08_11_Bastian_Final\c3d\Bastian.ASF
:FULLY-SPECIFIED
:DEGREES
401
root 19.2552 17.3518 -0.964544 363.077 -70.8056 -5.17774
lowerback 36.6138 2.56199 1.61276
upperback 17.1227 1.84288 -0.175077
thorax 0.637141 0.312137 -1.59512
lowerneck -9.88634 -9.35703 0.37803
upperneck -18.7535 -11.5598 17.6535
head -2.88499 -6.96235 5.26318
rclavicle 1.29162e-014 -3.80406e-014
rhumerus 4.07266 40.1559 -72.0753
rradius 28.1265
rwrist -7.3637
rhand -26.3749 1.32325
rfingers 7.12502
rthumb 0.183622 -28.6564
lclavicle 1.29162e-014 -3.80406e-014
lhumerus -6.67166 -15.0727 84.0161
lradius 25.4969
lwrist 25.7351
lhand -14.4418 -8.66407
lfingers 7.12502
lthumb 11.7031 20.989
rfemur -24.8595 -1.94567 23.9143
rtibia 66.3249
rfoot -14.3053 -9.26111
rtoes -0.269975
lfemur -5.59759 -0.116616 -18.9503
ltibia 30.5439
lfoot -14.1616 -11.9287
ltoes -9.4751
402
root 19.1609 17.3558 -0.939793 363.057 -71.0116 -5.41511
lowerback 36.0236 2.48149 1.52642
upperback 17.0373 1.74191 -0.210456
thorax 0.72958 0.267992 -1.55107
lowerneck -9.70586 -9.33321 0.329953
upperneck -18.1693 -11.5524 17.6933
head -2.72895 -6.91254 5.2595
rclavicle -8.44835e-015 2.92462e-014
rhumerus 2.94973 39.3334 -72.9023
rradius 28.179
rwrist -7.59537
rhand -26.3804 1.51095
rfingers 7.12502
rthumb 0.178301 -28.4687
lclavicle -8.44835e-015 2.92462e-014
lhumerus -6.6512 -15.0502 83.993
lradius 25.7506
lwrist 25.7434
lhand -14.5326 -8.58117
lfingers 7.12502
lthumb 11.6155 21.0769
rfemur -25.4223 -2.14178 23.9759
rtibia 66.6987
rfoot -14.6315 -8.93282
rtoes -0.481457
lfemur -4.68861 0.0895577 -18.8368
ltibia 30.0743
lfoot -14.3156 -11.9665
ltoes -9.47032
403
root 19.0661 17.3612 -0.914264 363.133 -71.2142 -5.73859
lowerback 35.4312 2.38049 1.50296
upperback 16.9598 1.63341 -0.257121
thorax 0.837743 0.224729 -1.54998
lowerneck -9.61025 -9.29442 0.245115
upperneck -17.4928 -11.5331 17.7806
head -2.52673 -6.84702 5.26747
rclavicle -3.42904e-014 -2.85256e-014
rhumerus 1.91755 38.5559 -73.6305
rradius 28.2341
rwrist -7.83088
rhand -26.3154 1.5648
rfingers 7.12502
rthumb 0.24115 -28.4148
lclavicle -3.42904e-014 -2.85256e-014
lhumerus -6.6093 -15.0372 83.9559
lradius 26.0354
lwrist 25.7165
lhand -14.6234 -8.45964
lfingers 7.12502
lthumb 11.528 21.2033
rfemur -26.0119 -2.35429 24.0464
rtibia 66.9227
rfoot -15.0022 -8.63312
rtoes -0.580766
lfemur -3.75584 0.307892 -18.6916
ltibia 29.5088
lfoot -14.3718 -12.0198
ltoes -9.15997
404
root 18.9701 17.3681 -0.889615 363.14 -71.426 -5.99277
lowerback 34.8848 2.29523 1.41423
upperback 16.8421 1.52974 -0.27511
thorax 0.887036 0.17802 -1.48729
lowerneck -9.49101 -9.23973 0.166899
upperneck -16.6996 -11.5088 17.7757
head -2.30215 -6.76638 5.24344
rclavicle -2.60408e-014 2.127e-014
rhumerus 0.89279 37.783 -74.3295
rradius 28.199
rwrist -8.01781
rhand -26.1674 1.65269
rfingers 7.12502
rthumb 0.384019 -28.3267
lclavicle -2.60408e-014 2.127e-014
lhumerus -6.63331 -15.0383 83.9726
lradius 26.3008
lwrist 25.7734
lhand -14.7037 -8.43403
lfingers 7.12502
lthumb 11.4506 21.2333
rfemur -26.5821 -2.5871 24.0739
rtibia 66.9911
rfoot -15.4694 -8.30565
rtoes -0.616743
lfemur -2.7697 0.477585 -18.5757
ltibia 28.8653
lfoot -14.4585 -12.0141
ltoes -9.2371
405
root 18.8733 17.375 -0.864734 363.337 -71.6342 -6.42337
lowerback 34.3535 2.18691 1.42039
upperback 16.7112 1.42626 -0.30368
thorax 0.923489 0.138548 -1.48616
lowerneck -9.45878 -9.18231 0.11277
upperneck -15.8207 -11.4985 17.763
head -2.0402 -6.6849 5.20585
rclavicle -3.78685e-014 2.71341e-014
rhumerus -0.124039 36.8892 -75.0445
rradius 28.1261
rwrist -8.07851
rhand -26.0084 1.73509
rfingers 7.12502
rthumb 0.537609 -28.244
lclavicle -3.78685e-014 2.71341e-014
lhumerus -6.61326 -15.0991 83.9677
lradius 26.4964
lwrist 25.7918
lhand -14.8453 -8.40282
lfingers 7.12502
lthumb 11.314 21.272
rfemur -27.1537 -2.82459 24.1658
rtibia 66.9111
rfoot -15.9396 -8.06053
rtoes -0.641972
lfemur -1.80045 0.718608 -18.3842
ltibia 28.1928
lfoot -14.4987 -12.0587
ltoes -9.24835
406
root 18.7757 17.3811 -0.840154 363.448 -71.8421 -6.76735
lowerback 33.8725 2.08513 1.40235
upperback 16.57 1.32369 -0.316334
thorax 0.933036 0.0965182 -1.45696
lowerneck -9.48239 -9.14956 -0.00890441
upperneck -14.8724 -11.5299 17.7357
head -1.74256 -6.61312 5.16804
rclavicle 8.74653e-015 -2.98177e-015
rhumerus -1.09041 36.094 -75.6309
rradius 28.0699
rwrist -8.20144
rhand -25.8513 1.76841
rfingers 7.12502
rthumb 0.689317 -28.2102
lclavicle 8.74653e-015 -2.98177e-015
lhumerus -6.56768 -15.0708 84.0299
lradius 26.6469
lwrist 25.6906
lhand -14.9785 -8.33723
lfingers 7.12502
lthumb 11.1855 21.3446
rfemur -27.6914 -3.09308 24.2283
rtibia 66.6868
rfoot -16.3774 -7.88464
rtoes -0.661376
lfemur -0.810596 0.89356 -18.2337
ltibia 27.5077
lfoot -14.5135 -12.0593
ltoes -8.9727
407
root 18.6773 17.3841 -0.815658 363.613 -72.0546 -7.13922
lowerback 33.385 1.98668 1.39953
upperback 16.4254 1.22933 -0.337996
thorax 0.94475 0.0604156 -1.44801
lowerneck -9.55444 -9.12227 -0.101042
upperneck -13.8767 -11.5814 17.6946
head -1.42566 -6.54825 5.11832
rclavicle -2.06736e-014 8.34896e-015
rhumerus -2.03601 35.2759 -76.2012
rradius 28.0249
rwrist -8.25016
rhand -25.6987 1.79578
rfingers 7.12502
rthumb 0.836769 -28.1823
lclavicle -2.06736e-014 8.34896e-015
lhumerus -6.5204 -15.1575 84.0511
lradius 26.8374
lwrist 25.6819
lhand -15.0918 -8.26652
lfingers 7.12502
lthumb 11.0762 21.4212
rfemur -28.239 -3.3698 24.3068
rtibia 66.3394
rfoot -16.8191 -7.78257
rtoes -0.701049
lfemur 0.150974 1.07675 -18.0738
ltibia 26.8254
lfoot -14.5537 -12.0721
ltoes -9.01388
408
root 18.5777 17.3859 -0.791547 363.724 -72.2669 -7.42715
lowerback 32.8609 1.89274 1.36477
upperback 16.3075 1.12888 -0.348671
thorax 1.00009 0.0183802 -1.4095
lowerneck -9.69243 -9.08739 -0.158343
upperneck -12.877 -11.6354 17.581
head -1.10593 -6.483 5.04077
rclavicle 3.1408e-014 -1.70955e-014
rhumerus -2.89928 34.5813 -76.6393
rradius 28.0155
rwrist -8.41116
rhand -25.5462 1.85829
rfingers 7.12502
rthumb 0.984016 -28.1192
lclavicle 3.1408e-014 -1.70955e-014
lhumerus -6.45196 -15.3637 84.0739
lradius 27.1233
lwrist 25.7714
lhand -15.2824 -8.02521
lfingers 7.12502
lthumb 10.8923 21.6723
rfemur -28.7808 -3.63608 24.3633
rtibia 65.8732
rfoot -17.1957 -7.72974
rtoes -0.417458
lfemur 1.09001 1.23048 -17.9483
ltibia 26.1448
lfoot -14.5724 -12.0493
ltoes -8.69472
409
root 18.4779 17.3867 -0.767265 363.829 -72.4829 -7.70856
lowerback 31.9453 1.81095 1.32832
upperback 16.3975 1.02388 -0.284034
thorax 1.32486 -0.0259926 -1.38726
lowerneck -9.93565 -9.0767 -0.327378
upperneck -11.8519 -11.7212 17.5212
head -0.748225 -6.42594 4.99038
rclavicle -2.38542e-015 3.18055e-015
rhumerus -3.65825 33.9212 -76.9553
rradius 27.9921
rwrist -8.53224
rhand -25.4384 1.96262
rfingers 7.12502
rthumb 1.08819 -28.0144
lclavicle -2.38542e-015 3.18055e-015
lhumerus -6.2931 -15.4006 84.1542
lradius 27.4129
lwrist 25.7441
lhand -15.4628 -7.83562
lfingers 7.12502
lthumb 10.7184 21.871
rfemur -29.3046 -3.92963 24.4194
rtibia 65.3127
rfoot -17.6157 -7.605
rtoes 0.0590042
lfemur 2.03253 1.37811 -17.8304
ltibia 25.4576
lfoot -14.6223 -12.0232
ltoes -8.73821
410
root 18.3763 17.3866 -0.743241 364.055 -72.7179 -8.11202
lowerback 31.4558 1.71863 1.34568
upperback 16.2955 0.934254 -0.292424
thorax 1.40881 -0.0610173 -1.3753
lowerneck -10.167 -9.05028 -0.422012
upperneck -10.8433 -11.7915 17.433
head -0.406509 -6.36676 4.92469
rclavicle 1.63003e-014 7.7526e-015
rhumerus -4.42481 33.1912 -77.3062
rradius 27.9476
rwrist -8.57326
rhand -25.3148 2.12392
rfingers 7.12502
rthumb 1.20752 -27.8524
lclavicle 1.63003e-014 7.7526e-015
lhumerus -6.15247 -15.5918 84.1624
lradius 27.7796
lwrist 25.8463
lhand -15.5716 -7.6777
lfingers 7.12502
lthumb 10.6134 22.0343
rfemur -29.7926 -4.18923 24.526
rtibia 64.6548
rfoot -18.0613 -7.53932
rtoes 0.0142536
lfemur 3.01141 1.53424 -17.6714
ltibia 24.7236
lfoot -14.648 -11.9606
ltoes -8.65167
411
root 18.2745 17.3883 -0.718775 364.191 -72.924 -8.3846
lowerback 30.9544 1.61842 1.34283
upperback 16.1948 0.830104 -0.292365
thorax 1.49998 -0.104627 -1.33911
lowerneck -10.4015 -9.03125 -0.564343
upperneck -9.84432 -11.8668 17.3442
head -0.0640004 -6.3101 4.86796
rclavicle 1.41137e-014 -1.49089e-014
rhumerus -5.17118 32.3413 -77.6279
rradius 27.9093
rwrist -8.52794
rhand -25.1403 2.42235
rfingers 7.12502
rthumb 1.37609 -27.553
lclavicle 1.41137e-014 -1.49089e-014
lhumerus -6.03663 -15.7669 84.2049
lradius 28.2443
lwrist 25.9361
lhand -15.6916 -7.56284
lfingers 7.12502
lthumb 10.4976 22.155
rfemur -30.2872 -4.49033 24.5875
rtibia 63.9231
rfoot -18.6625 -7.43006
rtoes 0.55847
lfemur 3.97713 1.71318 -17.5525
ltibia 23.9112
lfoot -14.6089 -11.9301
ltoes -8.81033
412
root 18.1715 17.3909 -0.693981 364.306 -73.1589 -8.64334
lowerback 30.4725 1.51892 1.34605
upperback 16.0928 0.726514 -0.302848
thorax 1.58378 -0.14746 -1.31937
lowerneck -10.5819 -9.00883 -0.691715
upperneck -8.90393 -11.9304 17.2253
head 0.247863 -6.25566 4.80724
rclavicle -3.35946e-014 2.8625e-014
rhumerus -5.85733 31.4326 -77.947
rradius 27.8356
rwrist -8.36344
rhand -24.8904 2.69129
rfingers 7.12502
rthumb 1.61744 -27.2823
lclavicle -3.35946e-014 2.8625e-014
lhumerus -5.90781 -15.9416 84.2195
lradius 28.7013
lwrist 26.0454
lhand -15.7434 -7.54924
lfingers 7.12502
lthumb 10.4477 22.1712
rfemur -30.7596 -4.75925 24.6484
rtibia 63.1227
rfoot -19.2005 -7.39843
rtoes 1.14696
lfemur 5.01713 1.80378 -17.4677
ltibia 22.9924
lfoot -14.5458 -11.7869
ltoes -8.81858
413
root 18.066 17.3956 -0.669316 364.355 -73.3928 -8.82332
lowerback 29.9629 1.41235 1.33455
upperback 16.0084 0.607418 -0.337247
thorax 1.70165 -0.197912 -1.31429
lowerneck -10.663 -8.96444 -0.785449
upperneck -8.11212 -11.9477 17.1263
head 0.495252 -6.19619 4.76115
rclavicle -2.08724e-014 -2.72335e-014
rhumerus -6.45064 30.5001 -78.2846
rradius 27.6983
rwrist -8.21992
rhand -24.6511 2.99207
rfingers 7.12502
rthumb 1.84851 -26.9797
lclavicle -2.08724e-014 -2.72335e-014
lhumerus -5.7735 -16.1209 84.1957
lradius 29.1888
lwrist 26.2061
lhand -15.8366 -7.55756
lfingers 7.12502
lthumb 10.3578 22.1673
rfemur -31.2404 -5.03131 24.691
rtibia 62.2624
rfoot -19.5315 -7.46726
rtoes 1.32943
lfemur 6.11629 1.88518 -17.4111
ltibia 21.9425
lfoot -14.3791 -11.6425
ltoes -8.68502
414
root 17.9598 17.4017 -0.645185 364.476 -73.6169 -9.08812
lowerback 29.4938 1.29792 1.35014
upperback 15.9147 0.485526 -0.347108
thorax 1.79308 -0.249671 -1.29824
lowerneck -10.7106 -8.92271 -0.912714
upperneck -7.34315 -11.9601 17.0004
head 0.730104 -6.13712 4.71595
rclavicle -7.95139e-016 -9.93923e-015
rhumerus -7.06167 29.5913 -78.5996
rradius 27.5709
rwrist -8.10367
rhand -24.4523 3.26134
rfingers 7.12502
rthumb 2.04057 -26.7086
lclavicle -7.95139e-016 -9.93923e-015
lhumerus -5.6504 -16.3076 84.1902
lradius 29.7009
lwrist 26.3578
lhand -15.8347 -7.6175
lfingers 7.12502
lthumb 10.3596 22.1073
rfemur -31.7127 -5.31754 24.7638
rtibia 61.3455
rfoot -19.7048 -7.57141
rtoes 1.48494
lfemur 7.28433 1.98925 -17.3233
ltibia 20.7707
lfoot -14.199 -11.4745
ltoes -8.99869
